<mxfile host="app.diagrams.net" modified="2023-08-22T03:44:56.039Z" agent="Mozilla/5.0 (Windows NT 10.0; Win64; x64) AppleWebKit/537.36 (KHTML, like Gecko) Chrome/116.0.0.0 Safari/537.36" etag="_DvLpCaEarOzPIB54Qxd" version="21.6.8" type="github">
  <diagram name="第 1 页" id="GzfE-yEDeLufz6VU4njj">
    <mxGraphModel dx="2643" dy="1692" grid="1" gridSize="10" guides="1" tooltips="1" connect="1" arrows="1" fold="1" page="1" pageScale="1" pageWidth="827" pageHeight="1169" math="0" shadow="0">
      <root>
        <mxCell id="0" />
        <mxCell id="1" parent="0" />
        <mxCell id="2" value="Start" style="whiteSpace=wrap;strokeWidth=2;" parent="1" vertex="1">
          <mxGeometry x="-720" y="-597" width="51" height="34" as="geometry" />
        </mxCell>
        <mxCell id="4" value="End" style="whiteSpace=wrap;strokeWidth=2;" parent="1" vertex="1">
          <mxGeometry x="-220" y="-597" width="41" height="34" as="geometry" />
        </mxCell>
        <mxCell id="5" value="" style="curved=1;startArrow=none;endArrow=block;exitX=0.9934129901960784;exitY=0.5;" parent="1" source="2" target="F0pO8iZFiC6hmlwL7Zcl-8" edge="1">
          <mxGeometry relative="1" as="geometry">
            <Array as="points" />
            <mxPoint x="-540" y="-580" as="targetPoint" />
          </mxGeometry>
        </mxCell>
        <mxCell id="6" value="" style="curved=1;startArrow=none;endArrow=block;entryX=-0.0009527439024390244;entryY=0.5;exitX=1;exitY=0.5;exitDx=0;exitDy=0;" parent="1" source="F0pO8iZFiC6hmlwL7Zcl-8" target="4" edge="1">
          <mxGeometry relative="1" as="geometry">
            <Array as="points" />
            <mxPoint x="-370" y="-580" as="sourcePoint" />
          </mxGeometry>
        </mxCell>
        <mxCell id="F0pO8iZFiC6hmlwL7Zcl-36" style="edgeStyle=orthogonalEdgeStyle;rounded=0;orthogonalLoop=1;jettySize=auto;html=1;exitX=0.5;exitY=1;exitDx=0;exitDy=0;entryX=0.5;entryY=0;entryDx=0;entryDy=0;" edge="1" parent="1" source="F0pO8iZFiC6hmlwL7Zcl-6" target="F0pO8iZFiC6hmlwL7Zcl-35">
          <mxGeometry relative="1" as="geometry" />
        </mxCell>
        <mxCell id="F0pO8iZFiC6hmlwL7Zcl-6" value="Write_Memory" style="shape=process;whiteSpace=wrap;html=1;backgroundOutline=1;" vertex="1" parent="1">
          <mxGeometry x="-820" y="-440" width="120" height="60" as="geometry" />
        </mxCell>
        <mxCell id="F0pO8iZFiC6hmlwL7Zcl-17" style="edgeStyle=orthogonalEdgeStyle;rounded=0;orthogonalLoop=1;jettySize=auto;html=1;entryX=0.5;entryY=0;entryDx=0;entryDy=0;" edge="1" parent="1" source="F0pO8iZFiC6hmlwL7Zcl-8" target="F0pO8iZFiC6hmlwL7Zcl-6">
          <mxGeometry relative="1" as="geometry">
            <mxPoint x="-500" y="-547" as="sourcePoint" />
            <Array as="points">
              <mxPoint x="-500" y="-510" />
              <mxPoint x="-678" y="-510" />
            </Array>
          </mxGeometry>
        </mxCell>
        <mxCell id="F0pO8iZFiC6hmlwL7Zcl-18" style="edgeStyle=orthogonalEdgeStyle;rounded=0;orthogonalLoop=1;jettySize=auto;html=1;exitX=0.25;exitY=1;exitDx=0;exitDy=0;entryX=0.5;entryY=0;entryDx=0;entryDy=0;" edge="1" parent="1" source="F0pO8iZFiC6hmlwL7Zcl-8" target="F0pO8iZFiC6hmlwL7Zcl-14">
          <mxGeometry relative="1" as="geometry" />
        </mxCell>
        <mxCell id="F0pO8iZFiC6hmlwL7Zcl-19" style="edgeStyle=orthogonalEdgeStyle;rounded=0;orthogonalLoop=1;jettySize=auto;html=1;exitX=0.5;exitY=1;exitDx=0;exitDy=0;entryX=0.5;entryY=0;entryDx=0;entryDy=0;" edge="1" parent="1" source="F0pO8iZFiC6hmlwL7Zcl-8" target="F0pO8iZFiC6hmlwL7Zcl-15">
          <mxGeometry relative="1" as="geometry" />
        </mxCell>
        <mxCell id="F0pO8iZFiC6hmlwL7Zcl-20" style="edgeStyle=orthogonalEdgeStyle;rounded=0;orthogonalLoop=1;jettySize=auto;html=1;exitX=0.75;exitY=1;exitDx=0;exitDy=0;entryX=0.5;entryY=0;entryDx=0;entryDy=0;" edge="1" parent="1" source="F0pO8iZFiC6hmlwL7Zcl-8" target="F0pO8iZFiC6hmlwL7Zcl-16">
          <mxGeometry relative="1" as="geometry">
            <Array as="points">
              <mxPoint x="-420" y="-520" />
              <mxPoint x="-222" y="-520" />
            </Array>
          </mxGeometry>
        </mxCell>
        <mxCell id="F0pO8iZFiC6hmlwL7Zcl-8" value="Form_A" style="shape=parallelogram;perimeter=parallelogramPerimeter;whiteSpace=wrap;html=1;fixedSize=1;" vertex="1" parent="1">
          <mxGeometry x="-510" y="-610" width="120" height="60" as="geometry" />
        </mxCell>
        <mxCell id="F0pO8iZFiC6hmlwL7Zcl-88" style="edgeStyle=orthogonalEdgeStyle;rounded=0;orthogonalLoop=1;jettySize=auto;html=1;exitX=0.5;exitY=1;exitDx=0;exitDy=0;entryX=0.5;entryY=0;entryDx=0;entryDy=0;" edge="1" parent="1" source="F0pO8iZFiC6hmlwL7Zcl-14" target="F0pO8iZFiC6hmlwL7Zcl-78">
          <mxGeometry relative="1" as="geometry" />
        </mxCell>
        <mxCell id="F0pO8iZFiC6hmlwL7Zcl-14" value="Read_Memory" style="shape=process;whiteSpace=wrap;html=1;backgroundOutline=1;" vertex="1" parent="1">
          <mxGeometry x="-600" y="-440" width="120" height="60" as="geometry" />
        </mxCell>
        <mxCell id="F0pO8iZFiC6hmlwL7Zcl-15" value="SendMessage" style="shape=process;whiteSpace=wrap;html=1;backgroundOutline=1;" vertex="1" parent="1">
          <mxGeometry x="-380" y="-440" width="120" height="60" as="geometry" />
        </mxCell>
        <mxCell id="F0pO8iZFiC6hmlwL7Zcl-16" value="WriteMessage&lt;br&gt;SendMessage" style="shape=process;whiteSpace=wrap;html=1;backgroundOutline=1;" vertex="1" parent="1">
          <mxGeometry x="-160" y="-440" width="120" height="60" as="geometry" />
        </mxCell>
        <mxCell id="F0pO8iZFiC6hmlwL7Zcl-40" style="edgeStyle=orthogonalEdgeStyle;rounded=0;orthogonalLoop=1;jettySize=auto;html=1;exitX=0.5;exitY=1;exitDx=0;exitDy=0;entryX=0.5;entryY=0;entryDx=0;entryDy=0;" edge="1" parent="1" source="F0pO8iZFiC6hmlwL7Zcl-74" target="F0pO8iZFiC6hmlwL7Zcl-38">
          <mxGeometry relative="1" as="geometry">
            <mxPoint x="-760" y="-110" as="sourcePoint" />
          </mxGeometry>
        </mxCell>
        <mxCell id="F0pO8iZFiC6hmlwL7Zcl-37" style="edgeStyle=orthogonalEdgeStyle;rounded=0;orthogonalLoop=1;jettySize=auto;html=1;exitX=0.5;exitY=1;exitDx=0;exitDy=0;entryX=0.528;entryY=0.023;entryDx=0;entryDy=0;entryPerimeter=0;" edge="1" parent="1" source="F0pO8iZFiC6hmlwL7Zcl-35" target="F0pO8iZFiC6hmlwL7Zcl-60">
          <mxGeometry relative="1" as="geometry">
            <mxPoint x="-760" y="-230" as="targetPoint" />
          </mxGeometry>
        </mxCell>
        <mxCell id="F0pO8iZFiC6hmlwL7Zcl-35" value="Mutex&lt;br&gt;(WaitOne)" style="ellipse;shape=umlEntity;whiteSpace=wrap;html=1;" vertex="1" parent="1">
          <mxGeometry x="-810" y="-340" width="100" height="80" as="geometry" />
        </mxCell>
        <mxCell id="F0pO8iZFiC6hmlwL7Zcl-38" value="Mutex&lt;br&gt;(ReleaseMutex)" style="ellipse;shape=umlEntity;whiteSpace=wrap;html=1;" vertex="1" parent="1">
          <mxGeometry x="-905" y="40" width="100" height="80" as="geometry" />
        </mxCell>
        <mxCell id="F0pO8iZFiC6hmlwL7Zcl-41" value="COPYDATASTRUCT" style="swimlane;fontStyle=1;align=center;verticalAlign=top;childLayout=stackLayout;horizontal=1;startSize=26;horizontalStack=0;resizeParent=1;resizeParentMax=0;resizeLast=0;collapsible=1;marginBottom=0;whiteSpace=wrap;html=1;" vertex="1" parent="1">
          <mxGeometry x="-528" y="140" width="230" height="130" as="geometry">
            <mxRectangle x="-420" y="-270" width="150" height="30" as="alternateBounds" />
          </mxGeometry>
        </mxCell>
        <mxCell id="F0pO8iZFiC6hmlwL7Zcl-42" value="+ dwData : IntPtr&amp;nbsp; 資料類型" style="text;strokeColor=none;fillColor=none;align=left;verticalAlign=top;spacingLeft=4;spacingRight=4;overflow=hidden;rotatable=0;points=[[0,0.5],[1,0.5]];portConstraint=eastwest;whiteSpace=wrap;html=1;" vertex="1" parent="F0pO8iZFiC6hmlwL7Zcl-41">
          <mxGeometry y="26" width="230" height="26" as="geometry" />
        </mxCell>
        <mxCell id="F0pO8iZFiC6hmlwL7Zcl-44" value="+ cbData : int&amp;nbsp; &amp;nbsp;資料的大小" style="text;strokeColor=none;fillColor=none;align=left;verticalAlign=top;spacingLeft=4;spacingRight=4;overflow=hidden;rotatable=0;points=[[0,0.5],[1,0.5]];portConstraint=eastwest;whiteSpace=wrap;html=1;" vertex="1" parent="F0pO8iZFiC6hmlwL7Zcl-41">
          <mxGeometry y="52" width="230" height="26" as="geometry" />
        </mxCell>
        <mxCell id="F0pO8iZFiC6hmlwL7Zcl-55" value="&amp;nbsp;[MarshalAs(UnmanagedType.LPStr)]" style="text;strokeColor=none;fillColor=none;align=left;verticalAlign=top;spacingLeft=4;spacingRight=4;overflow=hidden;rotatable=0;points=[[0,0.5],[1,0.5]];portConstraint=eastwest;whiteSpace=wrap;html=1;" vertex="1" parent="F0pO8iZFiC6hmlwL7Zcl-41">
          <mxGeometry y="78" width="230" height="26" as="geometry" />
        </mxCell>
        <mxCell id="F0pO8iZFiC6hmlwL7Zcl-56" value="+ lpData : string資料" style="text;strokeColor=none;fillColor=none;align=left;verticalAlign=top;spacingLeft=4;spacingRight=4;overflow=hidden;rotatable=0;points=[[0,0.5],[1,0.5]];portConstraint=eastwest;whiteSpace=wrap;html=1;" vertex="1" parent="F0pO8iZFiC6hmlwL7Zcl-41">
          <mxGeometry y="104" width="230" height="26" as="geometry" />
        </mxCell>
        <mxCell id="F0pO8iZFiC6hmlwL7Zcl-75" value="" style="group" vertex="1" connectable="0" parent="1">
          <mxGeometry x="-980" y="-220" width="250" height="178" as="geometry" />
        </mxCell>
        <mxCell id="F0pO8iZFiC6hmlwL7Zcl-74" value="" style="html=1;whiteSpace=wrap;" vertex="1" parent="F0pO8iZFiC6hmlwL7Zcl-75">
          <mxGeometry y="78" width="250" height="100" as="geometry" />
        </mxCell>
        <mxCell id="F0pO8iZFiC6hmlwL7Zcl-60" value="MemoryMappedViewStream" style="swimlane;fontStyle=0;childLayout=stackLayout;horizontal=1;startSize=26;fillColor=none;horizontalStack=0;resizeParent=1;resizeParentMax=0;resizeLast=0;collapsible=1;marginBottom=0;whiteSpace=wrap;html=1;" vertex="1" parent="F0pO8iZFiC6hmlwL7Zcl-75">
          <mxGeometry x="35" width="170" height="78" as="geometry" />
        </mxCell>
        <mxCell id="F0pO8iZFiC6hmlwL7Zcl-61" value="+ iStart: int" style="text;strokeColor=none;fillColor=none;align=left;verticalAlign=top;spacingLeft=4;spacingRight=4;overflow=hidden;rotatable=0;points=[[0,0.5],[1,0.5]];portConstraint=eastwest;whiteSpace=wrap;html=1;" vertex="1" parent="F0pO8iZFiC6hmlwL7Zcl-60">
          <mxGeometry y="26" width="170" height="26" as="geometry" />
        </mxCell>
        <mxCell id="F0pO8iZFiC6hmlwL7Zcl-62" value="+ iSize: int" style="text;strokeColor=none;fillColor=none;align=left;verticalAlign=top;spacingLeft=4;spacingRight=4;overflow=hidden;rotatable=0;points=[[0,0.5],[1,0.5]];portConstraint=eastwest;whiteSpace=wrap;html=1;" vertex="1" parent="F0pO8iZFiC6hmlwL7Zcl-60">
          <mxGeometry y="52" width="170" height="26" as="geometry" />
        </mxCell>
        <mxCell id="F0pO8iZFiC6hmlwL7Zcl-71" value="BinaryWriter" style="swimlane;fontStyle=0;childLayout=stackLayout;horizontal=1;startSize=26;fillColor=none;horizontalStack=0;resizeParent=1;resizeParentMax=0;resizeLast=0;collapsible=1;marginBottom=0;whiteSpace=wrap;html=1;" vertex="1" parent="F0pO8iZFiC6hmlwL7Zcl-75">
          <mxGeometry x="15" y="89" width="220" height="78" as="geometry" />
        </mxCell>
        <mxCell id="F0pO8iZFiC6hmlwL7Zcl-72" value="&amp;nbsp;bwWriter.Write(bMessageWrite.Length)" style="text;strokeColor=none;fillColor=none;align=left;verticalAlign=top;spacingLeft=4;spacingRight=4;overflow=hidden;rotatable=0;points=[[0,0.5],[1,0.5]];portConstraint=eastwest;whiteSpace=wrap;html=1;" vertex="1" parent="F0pO8iZFiC6hmlwL7Zcl-71">
          <mxGeometry y="26" width="220" height="26" as="geometry" />
        </mxCell>
        <mxCell id="F0pO8iZFiC6hmlwL7Zcl-73" value="bwWriter.&lt;font color=&quot;#ff8000&quot;&gt;Write&lt;/font&gt;(bMessageWrite)" style="text;strokeColor=none;fillColor=none;align=left;verticalAlign=top;spacingLeft=4;spacingRight=4;overflow=hidden;rotatable=0;points=[[0,0.5],[1,0.5]];portConstraint=eastwest;whiteSpace=wrap;html=1;" vertex="1" parent="F0pO8iZFiC6hmlwL7Zcl-71">
          <mxGeometry y="52" width="220" height="26" as="geometry" />
        </mxCell>
        <mxCell id="F0pO8iZFiC6hmlwL7Zcl-76" style="edgeStyle=orthogonalEdgeStyle;rounded=0;orthogonalLoop=1;jettySize=auto;html=1;exitX=0.5;exitY=1;exitDx=0;exitDy=0;entryX=0.5;entryY=0;entryDx=0;entryDy=0;" edge="1" source="F0pO8iZFiC6hmlwL7Zcl-81" target="F0pO8iZFiC6hmlwL7Zcl-79" parent="1">
          <mxGeometry relative="1" as="geometry">
            <mxPoint x="-540" y="-110" as="sourcePoint" />
          </mxGeometry>
        </mxCell>
        <mxCell id="F0pO8iZFiC6hmlwL7Zcl-77" style="edgeStyle=orthogonalEdgeStyle;rounded=0;orthogonalLoop=1;jettySize=auto;html=1;exitX=0.5;exitY=1;exitDx=0;exitDy=0;entryX=0.528;entryY=0.023;entryDx=0;entryDy=0;entryPerimeter=0;" edge="1" source="F0pO8iZFiC6hmlwL7Zcl-78" target="F0pO8iZFiC6hmlwL7Zcl-82" parent="1">
          <mxGeometry relative="1" as="geometry">
            <mxPoint x="-540" y="-230" as="targetPoint" />
          </mxGeometry>
        </mxCell>
        <mxCell id="F0pO8iZFiC6hmlwL7Zcl-78" value="Mutex&lt;br&gt;(WaitOne)" style="ellipse;shape=umlEntity;whiteSpace=wrap;html=1;" vertex="1" parent="1">
          <mxGeometry x="-590" y="-340" width="100" height="80" as="geometry" />
        </mxCell>
        <mxCell id="F0pO8iZFiC6hmlwL7Zcl-79" value="Mutex&lt;br&gt;(ReleaseMutex)" style="ellipse;shape=umlEntity;whiteSpace=wrap;html=1;" vertex="1" parent="1">
          <mxGeometry x="-590" y="40" width="100" height="80" as="geometry" />
        </mxCell>
        <mxCell id="F0pO8iZFiC6hmlwL7Zcl-80" value="" style="group" vertex="1" connectable="0" parent="1">
          <mxGeometry x="-700" y="-220" width="250" height="178" as="geometry" />
        </mxCell>
        <mxCell id="F0pO8iZFiC6hmlwL7Zcl-81" value="" style="html=1;whiteSpace=wrap;" vertex="1" parent="F0pO8iZFiC6hmlwL7Zcl-80">
          <mxGeometry y="78" width="250" height="100" as="geometry" />
        </mxCell>
        <mxCell id="F0pO8iZFiC6hmlwL7Zcl-82" value="MemoryMappedViewStream" style="swimlane;fontStyle=0;childLayout=stackLayout;horizontal=1;startSize=26;fillColor=none;horizontalStack=0;resizeParent=1;resizeParentMax=0;resizeLast=0;collapsible=1;marginBottom=0;whiteSpace=wrap;html=1;" vertex="1" parent="F0pO8iZFiC6hmlwL7Zcl-80">
          <mxGeometry x="35" width="170" height="78" as="geometry" />
        </mxCell>
        <mxCell id="F0pO8iZFiC6hmlwL7Zcl-83" value="+ iStart: int" style="text;strokeColor=none;fillColor=none;align=left;verticalAlign=top;spacingLeft=4;spacingRight=4;overflow=hidden;rotatable=0;points=[[0,0.5],[1,0.5]];portConstraint=eastwest;whiteSpace=wrap;html=1;" vertex="1" parent="F0pO8iZFiC6hmlwL7Zcl-82">
          <mxGeometry y="26" width="170" height="26" as="geometry" />
        </mxCell>
        <mxCell id="F0pO8iZFiC6hmlwL7Zcl-84" value="+ iSize: int" style="text;strokeColor=none;fillColor=none;align=left;verticalAlign=top;spacingLeft=4;spacingRight=4;overflow=hidden;rotatable=0;points=[[0,0.5],[1,0.5]];portConstraint=eastwest;whiteSpace=wrap;html=1;" vertex="1" parent="F0pO8iZFiC6hmlwL7Zcl-82">
          <mxGeometry y="52" width="170" height="26" as="geometry" />
        </mxCell>
        <mxCell id="F0pO8iZFiC6hmlwL7Zcl-85" value="BinaryReader" style="swimlane;fontStyle=0;childLayout=stackLayout;horizontal=1;startSize=26;fillColor=none;horizontalStack=0;resizeParent=1;resizeParentMax=0;resizeLast=0;collapsible=1;marginBottom=0;whiteSpace=wrap;html=1;" vertex="1" parent="F0pO8iZFiC6hmlwL7Zcl-80">
          <mxGeometry x="15" y="89" width="220" height="78" as="geometry" />
        </mxCell>
        <mxCell id="F0pO8iZFiC6hmlwL7Zcl-86" value="&amp;nbsp;bwWriter.Write(bMessageWrite.Length)" style="text;strokeColor=none;fillColor=none;align=left;verticalAlign=top;spacingLeft=4;spacingRight=4;overflow=hidden;rotatable=0;points=[[0,0.5],[1,0.5]];portConstraint=eastwest;whiteSpace=wrap;html=1;" vertex="1" parent="F0pO8iZFiC6hmlwL7Zcl-85">
          <mxGeometry y="26" width="220" height="26" as="geometry" />
        </mxCell>
        <mxCell id="F0pO8iZFiC6hmlwL7Zcl-87" value="bwWriter.&lt;font color=&quot;#ff8000&quot;&gt;Write&lt;/font&gt;(bMessageWrite)" style="text;strokeColor=none;fillColor=none;align=left;verticalAlign=top;spacingLeft=4;spacingRight=4;overflow=hidden;rotatable=0;points=[[0,0.5],[1,0.5]];portConstraint=eastwest;whiteSpace=wrap;html=1;" vertex="1" parent="F0pO8iZFiC6hmlwL7Zcl-85">
          <mxGeometry y="52" width="220" height="26" as="geometry" />
        </mxCell>
      </root>
    </mxGraphModel>
  </diagram>
</mxfile>
